# xmcd CD database file
#
# Track frame offsets:
#	150
#	12539
#	23173
#	33674
#	45513
#	61818
#	73545
#	86399
#	97866
#	110910
#	123835
#	134140
#
# Disc length: 1947 seconds
#
# Revision: 0
# Processed by: cddbd v1.4PL0 Copyright (c) Steve Scherf et al.
# Submitted via: CDex 1.40Release
#
DISCID=9f07990c
DTITLE=Jimmy Reed - Caress Me Baby
DYEAR=1900
DGENRE=Blues
TTITLE0=Honest I Do
TTITLE1=Found Love
TTITLE2=Ain't That Lovin' You Baby
TTITLE3=Hush, Hush
TTITLE4=Cold And Lonesome
TTITLE5=Close Together
TTITLE6=Caress Me Baby
TTITLE7=I'm Nervous
TTITLE8=Oh, John
TTITLE9=Shame, Shame, Shame
TTITLE10=I Ain't Got You
TTITLE11=Going Fishing
EXTD=ID3G: 0
EXTT0=
EXTT1=
EXTT2=
EXTT3=
EXTT4=
EXTT5=
EXTT6=
EXTT7=
EXTT8=
EXTT9=
EXTT10=
EXTT11=
PLAYORDER=
